# xmcd
#
# Track frame offsets: 
#        150
#        12854
#        28874
#        47481
#        67193
#        88043
#        106036
#        118559
#        135874
#        155695
#        168918
#        183830
#
# Disc length: 2720 seconds
#
# Revision: 7
# Processed by: cddbd v1.5.2PL0 Copyright (c) Steve Scherf et al.
# Submitted via: ExactAudioCopyFreeDBPlugin 1.0
#
DISCID=8f0a9e0c
DTITLE=Amy Winehouse - 2011 - Lioness: Hidden Treasures
DYEAR=2011
DGENRE=R&B
TTITLE0=Our Day Will Come
TTITLE1=Between the Cheats
TTITLE2=Tears Dry (Original Version)
TTITLE3=Will You Still Love Me Tomorrow? (2011)
TTITLE4=Like Smoke (feat. Nas)
TTITLE5=Valerie ('68 Version)
TTITLE6=The Girl from Ipanema
TTITLE7=Half Time
TTITLE8=Wake Up Alone (Original Recording)
TTITLE9=Best Friends, Right?
TTITLE10=Body and Soul (with Tony Bennett)
TTITLE11=A Song for You
EXTD=
EXTT0=
EXTT1=
EXTT2=
EXTT3=
EXTT4=
EXTT5=
EXTT6=
EXTT7=
EXTT8=
EXTT9=
EXTT10=
EXTT11=
PLAYORDER=
